<svg xmlns="http://www.w3.org/2000/svg" xmlns:xlink="http://www.w3.org/1999/xlink" version="1.1" width="1171" height="179" viewBox="0 0 1171 179">
<defs>
<clipPath id="clip_1">
<path transform="matrix(1,0,0,-1,0,179)" d="M0 179H1171V0H0Z"/>
</clipPath>
</defs>
<g >
<g clip-path="url(#clip_1)">
<path transform="matrix(1,0,0,-1,657.9907,77.5832)" d="M0 0-51.526 .057-51.548 11.254-27.481 11.11-27.2 23.64-61.028 23.56-61.204 35.225-1.055 35.213-1.137 55.572-53.791 55.583-53.77 66.416 11.779 66.418C11.571 55.928 11.381 46.045 11.836 35.306L23.926 35.305 24.148 23.559-13.914 23.594-13.907 11.114 12.943 11.165 12.985-20.337-.002-20.471Z" fill="#0b0b0b"/>
<path transform="matrix(1,0,0,-1,102.7516,95.7779)" d="M0 0 35.779-38.761 54.927-59.835 15.32-59.89-45.522 4.909-45.679-59.928-72.823-59.926-72.807 62.254-79.452 70.645-45.684 70.694-45.55 12.15 10.786 70.664 47.185 70.663 38.588 61.517-10.67 12.113-3.056 3.215C-1.922 1.89-1.118 1.211 0 0" fill="#9a0f1b"/>
<path transform="matrix(1,0,0,-1,274.4292,130.5103)" d="M0 0-9.619-25.204-105.464-25.208-105.417 105.475-77.861 105.445-77.723 .01Z" fill="#0b0b0b"/>
<path transform="matrix(1,0,0,-1,473.2994,155.5861)" d="M0 0-28.577-.152-28.549 66.687C-42.021 58.753-54.776 51.415-69.21 44.529L-49.401-.02-79.682-.127-93.676 33.199C-114.036 23.687-134.786 15.515-156.778 9.475L-190.377 .247C-191.803-.145-193.44-.388-195.009 .001L-138.661 130.641-106.125 130.709-100.428 117.422-74.309 56.763-99.89 47.962-122.399 103.435-126.812 92.01-154.533 26.151-94.006 45.096C-61.665 56.307-30.552 69.02-.075 84.871Z" fill="#0b0b0b"/>
<path transform="matrix(1,0,0,-1,473.2555,68.3559)" d="M0 0C-9.622-4.983-18.738-9.261-28.513-13.308L-28.536 43.39 .017 43.377Z" fill="#0b0b0b"/>
<path transform="matrix(1,0,0,-1,934.7943,61.3208)" d="M0 0C-9.454 2.84-15.818 9.545-22.345 18.092-27.615 9.751-34.561 2.738-43.62-2.036-46.098 1.319-48.456 3.482-51.358 6.381-40.682 12.02-32.947 20.59-29.171 31.654L-28.284 38.312-48.124 38.752-48.438 49.344 3.154 49.323 3.2 38.33-15.298 38.452C-17.112 25.535-6.249 15.033 6.345 9.233Z" fill="#0b0b0b"/>
<path transform="matrix(1,0,0,-1,824.6828,52.084505)" d="M0 0C3.702 2.372 3.151 8.462-.031 10.633-4.865 13.931-11.036 13.99-16.034 11.534-18.67 10.238-20.342 7.988-20.425 5.492-20.501 3.188-19.302 .221-16.617-.895-11.584-2.988-5.161-3.308 0 0M8.518-7.828C-.943-13.879-13.722-14.741-23.289-9.836-29.105-6.855-32.572-1.752-32.921 3.627-33.315 9.724-30.656 15.272-25.148 18.694-8.839 28.824 15.037 20.539 15.516 6.509 15.701 1.102 13.918-4.374 8.518-7.828" fill="#0b0b0b"/>
<path transform="matrix(1,0,0,-1,850.0029,97.996)" d="M0 0-.032 17.992-51.051 17.988-51.057 28.979 12.895 28.834 12.932 .068Z" fill="#0b0b0b"/>
<path transform="matrix(1,0,0,-1,963.7117,87.9831)" d="M0 0 .182-10.033-65.053-10.051-65.055 20.818-51.678 20.803-51.787-.21Z" fill="#0b0b0b"/>
<path transform="matrix(1,0,0,-1,875.5567,40.9366)" d="M0 0-12.867-.068-12.882-23.63-25.553-23.896-25.563 31.904-12.733 31.919-12.922 11.814 .103 11.769Z" fill="#0b0b0b"/>
<path transform="matrix(1,0,0,-1,960.5427,8.987595)" d="M0 0 .025-66.205-12.606-66.21-12.631-.005Z" fill="#0b0b0b"/>
<path transform="matrix(1,0,0,-1,841.7364,24.977295)" d="M0 0-52.164 .138-51.825 9.952-33.072 10.035-33.104 17.968-19.901 17.94-19.721 10.01 .057 10.06Z" fill="#0b0b0b"/>
<path transform="matrix(1,0,0,-1,907.3031,150.7933)" d="M0 0-.33-16.078C-2.073-16.393-3.56-16.429-5.228-16.267L-5.466 .656C-5.498 2.913-7.996 4.08-9.579 3.682-15.644 2.157-13.846-6.964-14.102-16.137L-19.137-16.14-19.108 7.224C-17.713 7.588-16.327 7.588-15.399 7.153-14.719 6.833-14.117 5.752-13.794 4.823-11.863 7.202-9.86 7.612-7.808 7.977-5.03 8.471-3.078 6.15-1.107 4.438 .831 5.881 3.059 8.256 6.214 7.931 8.516 7.693 12.242 6.954 12.345 3.429L12.918-16.19C10.811-16.547 9.498-16.316 8.148-16.127 8.449-5.343 9.495 5.82 3.466 3.644 2.39 3.255 .046 2.242 0 0" fill="#0b0b0b"/>
<path transform="matrix(1,0,0,-1,701.1758,144.416)" d="M0 0C.415 1.719 4.183 1.713 4.928 .414L-1.279-22.225C-2.817-22.969-5.84-23.131-6.724-22.211L-11.626-6.183-15.875-21.928C-16.262-23.027-20.441-23.258-20.779-22.159L-27.704 .341C-26.832 1.582-23.36 1.635-22.915 .685L-18.187-15.555-13.749 .21C-13.264 1.932-9.16 1.864-8.645 .128L-3.862-15.997Z" fill="#0b0b0b"/>
<path transform="matrix(1,0,0,-1,517.1984,147.6702)" d="M0 0 12.959-19.038C11.086-19.668 7.61-19.914 6.638-18.565L-3.652-4.277C-11.554-10.878-1.993-21.121-12.051-19.427L-12.32 13.464C-10.356 13.77-9.041 13.704-7.158 13.419L-7.043-1.755 4.851 12.691C6.035 14.129 9.398 13.929 11.084 12.925Z" fill="#0b0b0b"/>
<path transform="matrix(1,0,0,-1,735.0704,154.7813)" d="M0 0-4.673 15.039-9.268 .195ZM1.784-4.418C-2.512-4.134-6.509-3.475-10.669-4.815-12.025-5.84-12.077-9.608-13.07-11.289-14.019-12.895-17.528-12.69-18.32-11.453L-7.829 20.344C-5.943 21.049-3.077 21.175-1.536 20.28L9.684-11.812C8.445-12.438 5.018-12.945 3.849-11.475 2.47-9.742 2.355-7.499 1.784-4.418" fill="#0b0b0b"/>
<path transform="matrix(1,0,0,-1,761.3983,150.6179)" d="M0 0C-1.072 3.415-4.689 4.722-7.638 2.854-10.232-.707-10.909-5.166-9.402-9.305-8.598-11.512-6.819-12.743-4.887-12.785-.179-12.888 1.952-6.218 0 0M.018-14.478C-1.961-16.359-3.708-17.318-5.925-17.356-8.065-17.393-10.542-16.318-12.325-14.073-16.836-8.395-16.488 .957-10.918 6.098-7.782 8.993-2.799 7.712 .368 5.543L.617 17.397C2.418 17.636 3.772 17.745 5.527 17.371L5.534-16.022C3.895-17.141 1.157-16.557 .018-14.478" fill="#0b0b0b"/>
<path transform="matrix(1,0,0,-1,939.361,152.4083)" d="M0 0C1.161 2.038-2.201 6.117-4.836 5.438-7.491 4.753-9.753 2.689-9.588-.611-6.457-.439-3.05-1.341 0 0M-8.999-4.897C-10.265-6.336-8.538-9.575-6.822-10.53-1.792-13.329-.167-8.181 2.149-7.789 3.453-7.568 5.496-9.017 4.744-10.436 2.143-15.344-3.654-16.399-7.99-14.755-13.026-12.846-14.64-8.088-14.62-2.575-14.603 2.338-13.239 6.732-8.952 8.622-5.036 10.348 .524 9.935 3.133 5.997 5.176 2.912 5.522-.766 5.403-4.538Z" fill="#0b0b0b"/>
<path transform="matrix(1,0,0,-1,665.5018,156.3201)" d="M0 0C-2.704 .664-7.575-.522-8.411-3.617-9.132-6.284-6.123-8.042-4.129-7.678-1.285-7.158 1.004-3.208 0 0M-.105-8.831C-3.195-11.903-7.532-12.506-10.557-10.243-13.775-7.836-14.811-2.607-11.717 .342-8.56 3.352-4.433 2.644-.598 3.887 1.369 4.525-.398 9.3-2.967 9.411-5.089 9.502-7.308 9.207-8.17 5.775L-13.256 6.426C-12.019 11.953-7.541 13.914-2.501 13.399 1.52 12.988 4.713 11.067 4.827 6.607L5.26-10.416C3.893-11.387 1.126-10.705-.105-8.831" fill="#0b0b0b"/>
<path transform="matrix(1,0,0,-1,585.4402,152.2338)" d="M0 0C1.699 .987-1.136 5.863-3.893 5.453-6.304 5.094-8.786 3.687-9.36-.507-7.161-.607-3.139-1.824 0 0M1.027-8.071C2.396-7.863 3.613-7.997 5.348-8.729 4.145-13.447 .462-15.451-3.916-15.612-8.028-15.763-11.827-13.395-13.496-8.74-14.987-4.584-14.809 .425-12.629 4.381-9.961 9.223-4.322 10.623 .296 8.44 4.643 6.387 6.309 .585 5.17-4.494L-9.008-4.625C-9.836-6.834-8.067-9.644-6.5-10.586-3.631-12.311-.332-11.154 1.027-8.071" fill="#0b0b0b"/>
<path transform="matrix(1,0,0,-1,1155.1382,152.9115)" d="M0 0C.06 4.521-2.42 6.384-5.519 5.984-7.747 5.697-9.964 3.127-9.95-.036ZM-6.632-10.122C-2.563-12.483-.986-8.346 2.323-7.227 3.021-6.991 5.1-8.03 4.724-8.965 2.954-13.369-1.364-15.473-5.449-14.952-9.911-14.384-13.592-11.483-14.575-6.459-15.354-2.48-14.98 2.07-12.876 5.667-10.255 10.145-4.642 11.029-.42 9.102 3.876 7.142 5.618 2.044 4.902-3.692L-9.986-4.071C-10.124-6.951-8.595-8.983-6.632-10.122" fill="#0b0b0b"/>
<path transform="matrix(1,0,0,-1,879.0523,152.829)" d="M0 0C-.257 4.094-2.935 6.006-5.48 5.789-7.956 5.578-9.907 2.797-10.069-.166ZM-1.862-9.864 .708-7.412C1.403-6.748 4.553-8.109 4.245-9.037 2.428-14.517-3.475-16.057-7.788-14.511-12.915-12.674-15.562-7.867-15.274-2.148-15.073 1.857-13.794 5.36-11.194 7.643-8.295 10.189-3.668 10.953-.018 8.783 4.295 6.219 5.644 .801 4.748-4.059L-9.962-4.19C-10.164-6.528-9.273-8.242-7.965-9.589-6.607-10.987-3.983-11.888-1.862-9.864" fill="#0b0b0b"/>
<path transform="matrix(1,0,0,-1,607.9013,156.11661)" d="M0 0C-2.429 .281-4.858-.549-7.093-1.68-8.451-2.864-8.859-4.633-8.284-5.837-7.763-6.925-6.464-7.826-4.871-7.767-1.273-7.633 1.068-4.799 0 0M-11.621 .319C-8.576 3.143-4.529 2.507-.652 3.37 1.113 3.763-.238 8.048-1.83 8.691-4.479 9.761-6.549 9.034-8.061 5.967-8.654 4.765-12.926 5.677-12.758 6.928-12.144 11.486-7.802 13.208-4.37 13.264-.787 13.323 4.566 12.161 4.663 7.671L5.053-10.531C3.57-11.623 .934-10.516 .09-8.665-2.965-12.104-7.398-12.605-10.738-10.221-13.857-7.996-15.171-2.974-11.621 .319" fill="#0b0b0b"/>
<path transform="matrix(1,0,0,-1,806.9597,156.1901)" d="M0 0C-3.981-.063-6.324-.699-8.105-2.605-9.441-4.035-8.481-6.248-7.532-6.929-6.448-7.705-4.798-8.236-3.282-7.426-.651-6.02 .614-2.682 0 0M-13.509-2.91C-11.428 2.787-5.922 3.014-.777 3.392 .72 3.503-.079 7.556-1.33 8.352-6.545 11.67-7.943 3.218-12.574 6.915-12.283 11.243-7.455 13.154-4.451 13.312-.582 13.516 4.384 12.212 4.518 7.683L5.056-10.517C3.434-11.629 .778-10.427 .055-8.429-2.65-11.385-5.521-12.289-8.964-11.277-11.752-10.459-14.895-6.704-13.509-2.91" fill="#0b0b0b"/>
<path transform="matrix(1,0,0,-1,545.6622,149.3865)" d="M0 0C-1.011 2.08-3.109 2.668-5.068 2.421-9.506 1.862-11.682-5.831-8.702-11.646-7.63-13.736-5.34-14.498-3.591-14.121 1.377-13.049 2.757-5.675 0 0M6.339-5.159C6.454-9.57 5.29-13.124 2.753-15.608 .187-18.12-4.272-19.483-8.012-17.954-13.362-15.766-15.238-10.07-14.94-4.652-14.57 2.044-10.468 6.657-4.198 6.525 1.615 6.402 6.152 1.971 6.339-5.159" fill="#0b0b0b"/>
<path transform="matrix(1,0,0,-1,831.5456,167.1526)" d="M0 0 .176 15.842C.201 18.121-1.106 20.009-3.092 20.239-9.602 20.99-9.487 10.447-8.802 .285L-14.025 .06-14.005 23.335C-12.878 24.005-11.256 23.929-10.41 23.52-9.693 23.173-9.165 21.987-9.015 21.069-6.398 23.884-3.648 24.696-.19 24.091 2.372 23.643 5.169 20.663 5.2 17.084L5.345 .329Z" fill="#0b0b0b"/>
<path transform="matrix(1,0,0,-1,1114.9829,143.5887)" d="M0 0C1.855 .526 3.142 .496 5.004 .197L4.946-23.158C3.192-24.331 .317-23.228-.592-21.527-3.062-24.015-5.931-24.696-8.926-23.875-11.551-23.155-13.583-20.541-13.577-17.206L-13.549-.064C-11.728 .471-10.15 .455-8.777-.076L-8.767-15.252C-8.765-18.013-6.835-19.853-4.487-19.753-2.364-19.663-.154-17.95-.13-15.237Z" fill="#0b0b0b"/>
<path transform="matrix(1,0,0,-1,963.2912,166.9386)" d="M0 0 .106 15.008C.125 17.681-1.371 19.791-3.779 19.916-9.961 20.236-9.55 10.375-8.943 .503-10.441-.405-12.269-.239-14.235 .073L-14.221 23.448C-11.301 24.286-10.013 23.583-8.777 20.915-6.67 23.636-4.563 24.108-1.78 24.046 .482 23.996 4.248 22.852 4.327 19.542L4.791 .075Z" fill="#0b0b0b"/>
<path transform="matrix(1,0,0,-1,1027.0889,166.9022)" d="M0 0-.218 16.814C-.248 19.067-2.775 20.152-4.518 19.928-6.299 19.699-8.754 18.005-8.802 15.557L-9.11 .005-14.087-.051-14.09 23.401C-11.471 24.045-9.909 23.324-8.745 20.73-6.874 23.484-4.66 24.162-1.588 23.99 .945 23.848 4.602 22.246 4.672 18.716L5.041-.09Z" fill="#0b0b0b"/>
<path transform="matrix(1,0,0,-1,1048.7107,167.3551)" d="M0 0C-5.061-1.418-11.827 .605-11.627 6.367-11.576 7.817-7.031 7.525-6.455 5.645-5.833 3.619-3.727 3.41-2.394 3.53-.833 3.67 1.856 5.076 1.074 7.292-.193 10.883-12.163 9.269-11.65 17.807-11.442 21.253-8.47 23.84-4.65 24.372-.527 24.945 4.098 23.786 5.262 19.246 5.651 17.728 3.729 17.268 2.795 17.432 .107 17.906-.085 20.915-4.042 20.298-5.037 20.142-7.236 19.249-6.709 17.289-5.679 13.457 5.495 14.894 6.147 7.744 6.475 4.15 4.187 1.173 0 0" fill="#0b0b0b"/>
<path transform="matrix(1,0,0,-1,648.7761,162.2134)" d="M0 0 .2-4.798-18.819-4.766-18.749 28.005C-16.961 28.342-15.632 28.3-13.733 27.954L-13.745 .035Z" fill="#0b0b0b"/>
<path transform="matrix(1,0,0,-1,847.1274,160.2086)" d="M0 0C.978-2.334 2.82-3.183 4.368-3.293 6.534-3.447 8.22-2.44 9.303-.055 9.779 .992 13.481 1.146 13.567 .042 13.847-3.52 10.247-6.457 7.801-7.21 3.838-8.429 .082-7.383-2.745-4.329-6.125-.676-6.591 4.641-5.331 9.349-4.068 14.066-.623 17.085 3.51 17.283 7.951 17.495 12.909 15.145 13.254 10.178 13.306 9.281 9.701 8.662 9.239 9.45 8.272 11.099 7.458 12.672 6.129 13.062 4.289 13.601 2.143 12.932 .928 11.094-1.121 7.993-1.588 3.789 0 0" fill="#0b0b0b"/>
<path transform="matrix(1,0,0,-1,786.2307,144.4921)" d="M0 0C.548 1.728 4.384 1.858 4.945 .522L-2.676-22.034C-3.383-23.041-7.058-23.068-7.97-22.175L-16.016 .537C-14.447 1.426-12.029 1.33-10.939 .702L-5.211-16.432Z" fill="#0b0b0b"/>
<path transform="matrix(1,0,0,-1,1136.6361,163.1114)" d="M0 0C1.817 .143 2.102-2.177 1.427-3.321 .384-5.087-4.847-5.084-7.374-3.126-11.281-.098-8.223 7.945-9.999 14.967-11.108 15.539-12.978 16.151-12.852 17.62-12.715 19.22-11.62 19.462-10.068 20.607L-8.861 24.776C-8.594 25.695-5.136 26.573-4.29 25.692L-4.156 20.431C-4.112 18.683 .107 19.805 1.065 19.488 2.077 17.801 1.234 15.766 .367 15.721L-3.974 15.499-4.406 3.302C-4.45 2.063-4.072 1.013-3.607 .606-3.014 .086-1.826-.144 0 0" fill="#0b0b0b"/>
<path transform="matrix(1,0,0,-1,1091.992,160.0427)" d="M0 0C-.008-1.145 .405-2.26 .942-2.582 1.691-3.031 2.916-3.103 4.004-3.001 5.967-2.817 5.948-4.346 5.875-5.43 5.666-8.543-.229-8.357-2.798-6.282-6.908-2.963-3.881 4.776-5.419 11.852-6.48 12.476-8.417 13.049-8.237 14.556-8.06 16.031-5.976 16.188-5.569 17.539L-4.313 21.72C-4.03 22.661-.516 23.53 .255 22.211-.37 20.097-.657 16.655 1.806 16.589 3.304 16.548 4.781 16.776 5.511 16.08 6.083 15.535 6.285 12.908 5.223 12.813L.087 12.352Z" fill="#0b0b0b"/>
<path transform="matrix(1,0,0,-1,1069.8713,162.9413)" d="M0 0C1.309 .08 1.634-2.442 1.014-3.442 .591-4.124-.71-4.572-2.03-4.797-6.195-5.507-9.751-3.286-9.812 1.065L-10.011 15.405C-11.501 15.666-13.033 16.186-13.123 17.363-13.248 19.005-11.654 19.484-10.383 20.533-9.599 21.181-9.783 23.96-9.213 24.791-8.541 25.77-5.118 26.604-4.953 25.12-4.751 23.307-5.753 19.532-3.808 19.504L.106 19.447C.986 19.434 .83 16.824 .509 15.815 .216 14.892-2.989 15.505-4.216 15.628-5.558 9.589-5.297 .957-3.977 .318-3.256-.031-2.172-.133 0 0" fill="#0b0b0b"/>
<path transform="matrix(1,0,0,-1,979.9884,159.9537)" d="M0 0C-.219-4.561 5.959-1.782 5.802-5.551 5.689-8.283-.183-8.478-2.803-6.369-6.809-3.142-3.972 5.033-5.375 12.264-6.363 12.786-8.148 13.339-8.331 14.396-8.647 16.223-5.888 16.23-5.57 17.398L-4.381 21.756C-4.111 22.746-.384 23.463 .075 22.315 .083 20.484-.336 18.772 .142 17.533 .639 16.244 3.134 16.622 4.621 16.455 6.19 16.28 6.169 13.519 5.47 12.862 4.698 12.137 2.146 12.452 .614 12.601-.637 8.909 .198 4.122 0 0" fill="#0b0b0b"/>
<path transform="matrix(1,0,0,-1,1006.2649,134.0537)" d="M0 0 .065-33.063-5.281-33.073-5.346-.011Z" fill="#0b0b0b"/>
<path transform="matrix(1,0,0,-1,569.0195,147.9917)" d="M0 0C-4.09 .729-6.729-1.276-7.367-4.892-8.195-9.594-7.685-14.069-7.75-18.918-9.823-19.15-11.185-19.113-12.787-18.866L-12.813 2.941C-12.814 4.535-11.398 4.861-10.464 4.822-9.076 4.764-7.991 4.054-7.545 1.661-5.858 4.121-3.427 5.577-.12 4.902Z" fill="#0b0b0b"/>
<path transform="matrix(1,0,0,-1,0,179)" d="M1074.756 35.559H1080V11.881998H1074.756Z" fill="#0b0b0b"/>
<path transform="matrix(1,0,0,-1,1080.3989,136.5792)" d="M0 0C0-1.632-1.323-2.954-2.954-2.954-4.586-2.954-5.909-1.632-5.909 0-5.909 1.632-4.586 2.954-2.954 2.954-1.323 2.954 0 1.632 0 0" fill="#0b0b0b"/>
<path transform="matrix(1,0,0,-1,536.3456,54.8386)" d="M0 0C3.774 2.309 5.2 7.438 2.473 10.674-3.123 17.311-15.937 15.171-18.004 8.812-18.849 6.209-18.813 3.278-16.83 1.336-12.406-2.997-5.603-3.428 0 0M8.147-8.224C-1.697-14.05-13.748-13.503-23.138-8.076-28.42-5.024-31.364 .094-31.516 5.369-31.686 11.269-29.194 16.965-23.708 20.326-12.601 27.131 2.569 26.741 12.231 17.448 19.942 10.032 17.545-2.662 8.147-8.224" fill="#0b0b0b"/>
<path transform="matrix(1,0,0,-1,588.1516,44.9946)" d="M0 0-13.128-.077-13.135-30.559C-17.233-30.451-21.224-30.294-25.527-30.531L-25.467 35.903-13.162 35.773-13.122 11.307 .272 11.547Z" fill="#0b0b0b"/>
<path transform="matrix(1,0,0,-1,577.746,88.0012)" d="M0 0 .131-10.005-63.733-10.023-63.762 15.957-51.532 15.888-51.412-.112Z" fill="#0b0b0b"/>
<path transform="matrix(1,0,0,-1,553.5365,25.965806)" d="M0 0-50.55-.111-50.681 10.144C-44.386 10.072-38.767 9.749-32.324 10.124-31.248 12.912-31.898 15.739-31.697 18.879L-18.715 19.008C-18.801 15.671-19.009 13.184-18.444 10.122L-.046 10.188Z" fill="#0b0b0b"/>
<path transform="matrix(1,0,0,-1,536.3456,54.8386)" d="M0 0C-5.603-3.428-12.406-2.997-16.83 1.336-18.813 3.278-18.849 6.209-18.004 8.812-15.937 15.171-3.123 17.311 2.473 10.674 5.2 7.438 3.774 2.309 0 0" fill="#fdfdfd"/>
<path transform="matrix(1,0,0,-1,1037.523,84.99)" d="M0 0C.029 2.06-2.979 4.219-5.078 4.476-17.132 5.949-36.605 6.163-35.883-.496-35.719-2.002-33.74-3.868-31.609-4.233-19.884-6.236-.082-5.905 0 0M13.981-.902C12.023-16.151-21.934-18.156-40.944-11.708-45.762-10.074-48.956-6.177-49.527-2.364-51.455 10.501-35.368 15.02-20.519 15.033-11.873 15.04-3.502 15.134 4.49 12.093 10.095 9.96 14.808 5.538 13.981-.902" fill="#0b0b0b"/>
<path transform="matrix(1,0,0,-1,1035.0219,37.601305)" d="M0 0C-.16 .946-1.187 2.686-2.766 2.963-14.346 4.995-32.473 5.113-31.9-.861-31.298-7.136 1.266-7.473 0 0M14.029-1.804C13.186-11.633-2.008-14.365-14.021-14.578-27.701-14.82-45.153-12.636-45.265-.868-45.396 12.841-21.884 14.397-5.956 12.895 5.238 11.839 14.88 8.131 14.029-1.804" fill="#0b0b0b"/>
<path transform="matrix(1,0,0,-1,979.001,55.8732)" d="M0 0 80.34-.13 80.323-10.331-.016-10.201Z" fill="#0b0b0b"/>
<path transform="matrix(1,0,0,-1,1054.93,22.040802)" d="M0 0-69.861 .01-69.872 10.037-41.965 9.92-41.808 16.154-29.668 16.236C-29.206 13.915-29.44 12.415-29.589 9.999L-.161 9.944Z" fill="#0b0b0b"/>
<path transform="matrix(1,0,0,-1,1037.523,84.99)" d="M0 0C-.082-5.905-19.884-6.236-31.609-4.233-33.74-3.868-35.719-2.002-35.883-.496-36.605 6.163-17.132 5.949-5.078 4.476-2.979 4.219 .029 2.06 0 0" fill="#fdfdfd"/>
<path transform="matrix(1,0,0,-1,1035.0219,37.601305)" d="M0 0C1.266-7.473-31.298-7.136-31.9-.861-32.473 5.113-14.346 4.995-2.766 2.963-1.187 2.686-.16 .946 0 0" fill="#fdfdfd"/>
<path transform="matrix(1,0,0,-1,824.6828,52.084505)" d="M0 0C-5.161-3.308-11.584-2.988-16.617-.895-19.302 .221-20.501 3.188-20.425 5.492-20.342 7.988-18.67 10.238-16.034 11.534-11.036 13.99-4.865 13.931-.031 10.633 3.151 8.462 3.702 2.372 0 0" fill="#fdfdfd"/>
<path transform="matrix(1,0,0,-1,735.0704,154.7813)" d="M0 0-9.268 .195-4.673 15.039Z" fill="#fdfdfd"/>
<path transform="matrix(1,0,0,-1,761.3983,150.6179)" d="M0 0C1.952-6.218-.179-12.888-4.887-12.785-6.819-12.743-8.598-11.512-9.402-9.305-10.909-5.166-10.232-.707-7.638 2.854-4.689 4.722-1.072 3.415 0 0" fill="#fdfdfd"/>
<path transform="matrix(1,0,0,-1,939.361,152.4083)" d="M0 0C-3.05-1.341-6.457-.439-9.588-.611-9.753 2.689-7.491 4.753-4.836 5.438-2.201 6.117 1.161 2.038 0 0" fill="#fdfdfd"/>
<path transform="matrix(1,0,0,-1,665.5018,156.3201)" d="M0 0C1.004-3.208-1.285-7.158-4.129-7.678-6.123-8.042-9.132-6.284-8.411-3.617-7.575-.522-2.704 .664 0 0" fill="#fdfdfd"/>
<path transform="matrix(1,0,0,-1,585.4402,152.2338)" d="M0 0C-3.139-1.824-7.161-.607-9.36-.507-8.786 3.687-6.304 5.094-3.893 5.453-1.136 5.863 1.699 .987 0 0" fill="#fdfdfd"/>
<path transform="matrix(1,0,0,-1,1155.1382,152.9115)" d="M0 0-9.95-.036C-9.964 3.127-7.747 5.697-5.519 5.984-2.42 6.384 .06 4.521 0 0" fill="#fdfdfd"/>
<path transform="matrix(1,0,0,-1,879.0523,152.829)" d="M0 0-10.069-.166C-9.907 2.797-7.956 5.578-5.48 5.789-2.935 6.006-.257 4.094 0 0" fill="#fdfdfd"/>
<path transform="matrix(1,0,0,-1,607.9013,156.11661)" d="M0 0C1.068-4.799-1.273-7.633-4.871-7.767-6.464-7.826-7.763-6.925-8.284-5.837-8.859-4.633-8.451-2.864-7.093-1.68-4.858-.549-2.429 .281 0 0" fill="#fdfdfd"/>
<path transform="matrix(1,0,0,-1,806.9597,156.1901)" d="M0 0C.614-2.682-.651-6.02-3.282-7.426-4.798-8.236-6.448-7.705-7.532-6.929-8.481-6.248-9.441-4.035-8.105-2.605-6.324-.699-3.981-.063 0 0" fill="#fdfdfd"/>
<path transform="matrix(1,0,0,-1,545.6622,149.3865)" d="M0 0C2.757-5.675 1.377-13.049-3.591-14.121-5.34-14.498-7.63-13.736-8.702-11.646-11.682-5.831-9.506 1.862-5.068 2.421-3.109 2.668-1.011 2.08 0 0" fill="#fdfdfd"/>
<path transform="matrix(1,0,0,-1,0,179)" d="M710.709 135.929H730.166V147H710.709ZM698.008 168.578 710.537 168.576 710.725 158.366 729.957 158.09 730.114 168.934 742.935 169.023 743.024 154.014 758.044 154.086 758.346 169.629 770.984 169.683 771.014 124.025 758.359 124.019 758.205 142.98 743.02 143.081 742.959 124.908C727.539 124.916 712.788 125.218 697.903 124.433Z" fill="#0b0b0b"/>
<path transform="matrix(1,0,0,-1,721.8368,78.0747)" d="M0 0-.015-10.164 36.435-10.219 36.45-.056ZM36.227 18.17 49.172 18.209 49.212-19.941-12.839-19.952-12.802 18.349-.199 18.579 .103 10.07 36.148 10.02Z" fill="#0b0b0b"/>
<path transform="matrix(1,0,0,-1,0,179)" d="M710.709 147H730.166V135.929H710.709Z" fill="#fdfdfd"/>
<path transform="matrix(1,0,0,-1,721.8368,78.0747)" d="M0 0 36.45-.056 36.435-10.219-.015-10.164Z" fill="#fdfdfd"/>
<path transform="matrix(1,0,0,-1,1114.3626,31.003296)" d="M0 0C2.95 1.843 4.061 4.518 3.408 7.212 1.964 13.166-7.926 14.646-15.461 12.184-18.791 11.095-20.743 8.458-20.635 5.53-20.338-2.529-6.535-4.081 0 0M16.479 4.634C15.576-10.894-6.441-15.919-22.682-9.482-28.448-7.196-32.569-3.063-33.601 2.447-34.677 8.192-32.599 14.47-27.434 18.161-16.94 25.66-3.013 25.865 8.281 19.665 13.88 16.592 16.83 10.675 16.479 4.634" fill="#0b0b0b"/>
<path transform="matrix(1,0,0,-1,1141.0354,71.6989)" d="M0 0-19.975-.304-19.952 9.952-.03 10.027-.014 62.608 12.906 62.637 13.273-6.383 .16-6.377Z" fill="#0b0b0b"/>
<path transform="matrix(1,0,0,-1,1156.6906,88.0229)" d="M0 0 .171-9.977-70.22-10.057-70.038 13.711-57.718 13.267-57.637-.033Z" fill="#0b0b0b"/>
<path transform="matrix(1,0,0,-1,1108.0303,71.9511)" d="M0 0-12.086 .145-12.034 14.908-33.791 14.885-33.736 24.979 26.061 25.027C26.607 21.47 26.815 18.461 25.972 15.117L.065 14.936Z" fill="#0b0b0b"/>
<path transform="matrix(1,0,0,-1,1114.3626,31.003296)" d="M0 0C-6.535-4.081-20.338-2.529-20.635 5.53-20.743 8.458-18.791 11.095-15.461 12.184-7.926 14.646 1.964 13.166 3.408 7.212 4.061 4.518 2.95 1.843 0 0" fill="#fdfdfd"/>
</g>
</g>
</svg>
